<?xml version="1.0" standalone="no"?>
<!DOCTYPE svg PUBLIC "-//W3C//DTD SVG 20010904//EN"
 "http://www.w3.org/TR/2001/REC-SVG-20010904/DTD/svg10.dtd">
<svg version="1.0" xmlns="http://www.w3.org/2000/svg"
 width="200.000000pt" height="200.000000pt" viewBox="0 0 200.000000 200.000000"
 preserveAspectRatio="xMidYMid meet">

<g transform="translate(0.000000,200.000000) scale(0.100000,-0.100000)"
fill="#000000" stroke="none">
<path d="M1410 1380 c-24 -24 -27 -111 -5 -150 22 -38 19 -47 -32 -81 -27 -18
-49 -36 -51 -41 -2 -4 -12 -8 -23 -8 -12 0 -19 -7 -19 -20 0 -13 7 -20 20 -20
19 0 20 -7 20 -123 l0 -122 110 -110 110 -110 110 110 110 110 0 107 c0 120 4
138 31 138 12 0 19 7 19 20 0 13 -7 20 -19 20 -10 0 -21 -9 -24 -20 -5 -18
-14 -20 -81 -20 -61 0 -76 3 -76 15 0 8 5 15 10 15 24 0 7 20 -35 41 -25 13
-53 31 -62 41 -15 17 -15 21 2 58 22 50 17 137 -11 157 -27 20 -81 16 -104 -7z
m320 -453 l0 -102 -95 -95 -95 -95 -95 95 -95 95 0 102 0 103 190 0 190 0 0
-103z"/>
<path d="M190 1010 l0 -80 55 0 c48 0 55 2 55 20 0 15 -7 20 -29 20 -17 0 -33
5 -36 10 -4 6 5 10 19 10 19 0 26 5 26 20 0 15 -7 20 -26 20 -14 0 -23 4 -19
10 3 6 19 10 36 10 22 0 29 5 29 20 0 18 -7 20 -55 20 l-55 0 0 -80z"/>
<path d="M330 1045 c0 -25 7 -62 15 -81 13 -31 18 -35 47 -32 40 4 62 41 62
108 1 39 -2 45 -21 48 -21 3 -23 -1 -23 -40 0 -44 -14 -78 -26 -65 -4 3 -9 29
-12 57 -4 40 -8 50 -23 50 -16 0 -19 -8 -19 -45z"/>
<path d="M490 1009 l0 -80 52 3 c41 2 54 7 56 21 3 14 -4 17 -32 17 -20 0 -36
5 -36 10 0 6 11 10 25 10 18 0 25 5 25 20 0 15 -7 20 -25 20 -14 0 -25 5 -25
10 0 6 16 10 35 10 28 0 35 4 35 20 0 18 -7 20 -55 20 l-55 0 0 -81z"/>
<path d="M630 1010 c0 -73 2 -80 20 -80 17 0 20 7 20 41 0 47 15 44 36 -8 10
-23 20 -33 32 -31 14 3 17 15 17 78 0 70 -1 75 -22 78 -19 3 -23 -1 -23 -24
l0 -28 -28 27 c-45 43 -52 36 -52 -53z"/>
<path d="M780 1070 c0 -13 7 -20 20 -20 18 0 20 -7 20 -61 0 -57 1 -60 23 -57
19 3 22 10 25 61 3 50 6 57 23 57 14 0 19 6 17 18 -3 14 -16 18 -66 20 -57 3
-62 1 -62 -18z"/>
<path d="M930 1071 c0 -10 7 -21 15 -25 9 -3 15 -18 15 -36 0 -18 -6 -33 -15
-36 -8 -4 -15 -15 -15 -25 0 -16 8 -19 50 -19 43 0 50 3 50 20 0 11 -7 20 -15
20 -11 0 -15 11 -15 40 0 29 4 40 15 40 8 0 15 9 15 20 0 17 -7 20 -50 20 -42
0 -50 -3 -50 -19z"/>
<path d="M1074 1055 c-7 -19 -14 -55 -14 -80 0 -38 3 -45 20 -45 13 0 20 7 20
20 0 27 36 27 43 -1 4 -13 12 -20 24 -17 25 5 29 58 7 113 -15 41 -20 45 -51
45 -29 0 -36 -5 -49 -35z m59 -25 c4 -15 0 -20 -14 -20 -17 0 -18 3 -9 20 6
11 12 20 14 20 2 0 6 -9 9 -20z"/>
</g>
</svg>
