<?xml version="1.0" standalone="no"?>
<!DOCTYPE svg PUBLIC "-//W3C//DTD SVG 20010904//EN"
 "http://www.w3.org/TR/2001/REC-SVG-20010904/DTD/svg10.dtd">
<svg version="1.0" xmlns="http://www.w3.org/2000/svg"
 width="200.000000pt" height="200.000000pt" viewBox="0 0 200.000000 200.000000"
 preserveAspectRatio="xMidYMid meet">
<metadata>
Created by potrace 1.11, written by Peter Selinger 2001-2013
</metadata>
<g transform="translate(0.000000,200.000000) scale(0.100000,-0.100000)"
fill="#000000" stroke="none">
<path d="M1444 1402 c-53 -8 -76 -99 -43 -172 11 -23 19 -43 19 -45 0 -7 -117
-80 -130 -80 -22 0 -25 -34 -3 -42 30 -11 33 -23 33 -140 l0 -111 111 -111
111 -112 111 111 110 111 2 117 c3 142 1 132 24 132 20 0 33 21 23 36 -4 5
-13 10 -21 9 -8 0 -27 11 -42 25 -15 14 -40 35 -56 47 -30 23 -30 21 22 38 12
3 13 10 7 22 -5 10 -13 39 -16 65 -9 57 -45 93 -86 83 -38 -10 -48 -24 -63
-98 -12 -58 -12 -69 0 -73 50 -15 49 -14 26 -33 l-22 -18 25 -13 c13 -8 24
-17 24 -23 0 -9 -64 26 -89 49 -12 11 -11 19 6 56 16 34 19 53 13 90 -10 69
-35 89 -96 80z m286 -472 l0 -101 -94 -96 -95 -96 -94 97 -94 96 1 100 1 100
187 0 188 0 0 -100z"/>
<path d="M1526 951 c-9 -17 -21 -32 -26 -32 -6 -1 -14 -3 -20 -4 -5 -1 -17 -3
-26 -4 -12 -1 -10 -7 9 -33 19 -25 24 -41 20 -66 l-5 -33 34 17 c32 15 37 15
66 0 l32 -16 -5 38 c-4 30 0 43 15 57 27 25 25 32 -11 40 -19 4 -37 18 -49 37
l-18 30 -16 -31z"/>
<path d="M189 1080 c0 -5 0 -32 0 -60 0 -97 -5 -90 55 -90 45 0 54 3 59 20 5
20 -5 25 -45 21 -9 -1 -19 3 -23 9 -4 6 4 10 18 10 21 0 37 16 37 36 0 2 -14
4 -31 4 -19 0 -28 4 -24 11 4 5 19 9 33 7 22 -2 28 2 30 20 3 21 0 22 -52 22
-31 0 -56 -4 -57 -10z"/>
<path d="M329 1085 c-11 -10 1 -95 16 -125 13 -24 22 -30 49 -30 30 0 35 4 50
43 9 23 16 59 16 80 0 33 -3 37 -25 37 -23 0 -25 -4 -25 -42 0 -52 -15 -83
-26 -54 -4 11 -8 35 -8 55 -1 28 -5 37 -21 39 -12 2 -23 0 -26 -3z"/>
<path d="M488 1078 c-2 -7 -4 -42 -4 -78 l1 -65 55 0 c48 0 55 2 55 20 0 15
-7 20 -27 20 -14 0 -30 3 -34 8 -4 4 5 7 19 7 20 0 27 5 27 20 0 15 -7 20 -25
20 -14 0 -25 5 -25 10 0 6 6 10 13 9 38 -5 57 2 57 21 0 18 -7 20 -54 20 -34
0 -55 -5 -58 -12z"/>
<path d="M628 1078 c-3 -7 -4 -42 -3 -78 0 -59 3 -65 23 -68 23 -4 26 6 22 58
l-2 25 21 -24 c12 -13 21 -33 21 -43 0 -14 6 -19 23 -16 20 3 22 9 25 79 3 76
3 77 -22 77 -21 0 -26 -5 -26 -27 l0 -26 -25 28 c-28 29 -50 35 -57 15z"/>
<path d="M782 1068 c2 -16 9 -22 21 -20 15 3 17 -4 15 -55 -3 -56 -2 -58 22
-58 26 0 27 1 29 83 1 25 5 32 21 32 13 0 20 7 20 20 0 18 -7 20 -66 20 -62 0
-65 -1 -62 -22z"/>
<path d="M929 1088 c-7 -24 -5 -38 7 -38 14 0 17 -6 17 -35 0 -37 -4 -45 -19
-45 -11 0 -14 -5 -10 -16 3 -9 6 -18 6 -20 0 -2 23 -4 50 -4 47 0 50 1 50 26
0 19 -4 25 -15 20 -11 -4 -14 3 -11 32 2 21 8 36 15 35 6 -2 11 8 11 22 0 23
-3 25 -50 25 -27 0 -50 -1 -51 -2z"/>
<path d="M1070 1050 c-14 -43 -19 -88 -12 -107 7 -22 42 -15 42 7 0 13 7 20
20 20 13 0 20 -7 20 -20 0 -15 7 -20 25 -20 22 0 25 4 25 40 0 22 -7 58 -16
80 -15 37 -19 40 -53 40 -35 0 -39 -3 -51 -40z m63 -20 c4 -15 0 -20 -14 -20
-17 0 -18 3 -9 20 6 11 12 20 14 20 2 0 6 -9 9 -20z"/>
</g>
</svg>
